<svg version="1.1" id="Layer_1" xmlns="http://www.w3.org/2000/svg" xmlns:xlink="http://www.w3.org/1999/xlink" x="0px" y="0px"
	 width="100%" viewBox="0 0 200 200" enable-background="new 0 0 200 200" xml:space="preserve">
<path fill="#111114" opacity="1.000000" stroke="none" 
	d="
M201.000000,33.000000 
	C201.000000,34.388889 201.000000,35.777779 200.610016,37.666885 
	C187.173584,41.383385 174.115326,44.053764 160.484543,43.158127 
	C155.624069,42.838760 150.584412,44.015720 145.734528,45.027382 
	C136.310577,46.993164 128.367889,51.578003 122.969101,59.771641 
	C121.343025,62.239506 118.841835,64.930199 121.537750,68.553535 
	C120.556862,70.231293 119.714470,71.591576 118.591965,73.132950 
	C113.863136,79.852097 109.414429,86.390152 104.666519,93.112930 
	C102.923332,95.259415 101.479332,97.221184 99.783455,99.043694 
	C97.714844,96.544037 95.898109,94.183640 94.004066,91.499016 
	C92.366585,89.077538 90.806419,86.980286 89.144318,84.560883 
	C87.656799,82.494423 86.271202,80.750099 84.892990,78.674072 
	C83.886162,76.667717 82.871956,74.993073 81.917564,72.881203 
	C84.782707,61.161842 83.120544,50.853420 73.079330,44.062386 
	C67.154945,40.055630 60.205006,36.766045 53.260307,35.268589 
	C44.497555,33.379116 35.268810,33.661213 26.243364,32.976540 
	C17.827362,32.338097 9.414336,31.660412 1.000000,31.000000 
	C1.000000,29.285837 1.000000,27.571672 1.400105,25.462914 
	C9.723079,25.641220 17.642647,26.626358 25.569595,26.689859 
	C37.295261,26.783792 49.028866,25.941109 60.753780,26.053080 
	C67.201164,26.114655 73.719116,26.888086 80.059937,28.100540 
	C89.483116,29.902382 99.042274,31.627998 108.041885,34.806499 
	C115.076553,37.291016 121.944588,40.032139 129.322220,38.860687 
	C143.078979,36.676331 156.781265,37.553917 170.579788,37.658215 
	C180.707550,37.734764 190.859070,34.666645 201.000000,33.000000 
z"/>
<path fill="#100E10" opacity="1.000000" stroke="none" 
	d="
M201.000000,32.583332 
	C190.859070,34.666645 180.707550,37.734764 170.579788,37.658215 
	C156.781265,37.553917 143.078979,36.676331 129.322220,38.860687 
	C121.944588,40.032139 115.076553,37.291016 108.041885,34.806499 
	C99.042274,31.627998 89.483116,29.902382 80.059937,28.100540 
	C73.719116,26.888086 67.201164,26.114655 60.753780,26.053080 
	C49.028866,25.941109 37.295261,26.783792 25.569595,26.689859 
	C17.642647,26.626358 9.723079,25.641220 1.400105,25.034159 
	C1.000000,23.285643 1.000000,21.571283 1.407215,19.464117 
	C7.888608,19.618336 14.067575,21.140352 20.014269,20.501219 
	C31.022957,19.318033 41.879440,16.770693 52.830048,14.979373 
	C62.387718,13.415911 71.688965,11.084839 80.032814,6.029231 
	C81.743073,4.992965 82.697289,2.708899 84.000000,1.000000 
	C89.688042,1.000000 95.376083,1.000000 101.562271,1.379112 
	C104.136909,5.432007 105.416649,10.078278 108.460129,12.571780 
	C114.319679,17.372475 120.778381,21.884424 127.701355,24.855156 
	C143.543945,31.653406 160.751877,31.562355 177.611832,32.919090 
	C179.047409,33.034607 180.549164,32.460487 182.006897,32.145325 
	C188.340607,30.775969 194.669418,29.383850 201.000000,28.000000 
	C201.000000,29.388889 201.000000,30.777779 201.000000,32.583332 
z"/>
<path fill="#100F12" opacity="1.000000" stroke="none" 
	d="
M201.000000,188.000000 
	C201.000000,189.388992 201.000000,190.778000 200.587784,192.571655 
	C195.117889,191.984039 190.098434,190.658920 184.994125,190.072617 
	C175.934631,189.032013 166.796692,188.669327 157.740356,187.607071 
	C143.325470,185.916275 130.808289,179.414536 118.871353,171.577148 
	C104.271713,161.991562 85.058128,162.488220 71.369934,173.079987 
	C60.824757,181.239700 49.693737,187.899429 36.176926,189.733017 
	C32.418331,190.242874 28.724648,191.231186 24.667465,192.000168 
	C23.888783,192.000626 23.443823,192.000931 22.555157,192.000809 
	C19.074757,192.333588 16.038061,192.666794 12.667646,193.000183 
	C11.888968,193.000656 11.444009,193.000931 10.645119,193.007355 
	C9.194559,193.342316 8.097930,193.671158 6.626032,194.000092 
	C5.500224,194.000534 4.749684,194.000870 3.624265,194.000854 
	C2.499591,194.000336 1.749795,194.000168 1.000000,194.000000 
	C1.000000,192.611008 1.000000,191.222000 1.387243,189.333786 
	C9.653999,187.889236 17.510508,186.484879 25.417538,186.088623 
	C45.451103,185.084641 61.270054,176.510803 71.839493,159.647858 
	C75.600883,153.646774 79.624817,150.551331 86.724228,150.860657 
	C88.009407,151.538193 89.011803,152.132080 90.338684,152.954498 
	C99.737831,157.606445 107.729576,155.465866 115.118683,149.488373 
	C116.270912,151.490707 117.470970,153.098175 118.386894,154.853882 
	C128.860718,174.930740 145.878265,183.962799 168.022934,183.928467 
	C176.561737,183.915222 184.932068,184.274658 193.133698,186.950378 
	C195.606720,187.757217 198.369797,187.674988 201.000000,188.000000 
z"/>
<path fill="#0F0B0C" opacity="1.000000" stroke="none" 
	d="
M22.998863,192.001221 
	C23.443823,192.000931 23.888783,192.000626 24.952499,192.250031 
	C28.943943,192.856262 32.355053,193.726700 35.682487,193.477936 
	C48.231018,192.539780 59.729309,187.889084 70.129242,181.245560 
	C85.630104,171.343552 100.676804,173.749237 115.694031,181.196686 
	C111.807594,182.783417 106.125671,182.105713 108.045135,188.948090 
	C108.157906,189.350082 106.923859,190.054886 106.442520,190.711166 
	C103.939194,194.124283 101.476715,197.567368 99.000000,201.000000 
	C66.333336,201.000000 33.666664,201.000000 1.000000,201.000000 
	C1.000000,199.653564 1.000000,198.326752 1.327231,196.465515 
	C2.436022,195.287796 3.217583,194.644516 3.999144,194.001221 
	C4.749684,194.000870 5.500224,194.000534 6.889400,194.180359 
	C8.685040,193.907425 9.842046,193.454315 10.999050,193.001221 
	C11.444009,193.000931 11.888968,193.000656 13.009584,193.202988 
	C16.789782,192.937485 19.894321,192.469360 22.998863,192.001221 
z"/>
<path fill="#0C0C0D" opacity="1.000000" stroke="none" 
	d="
M201.000000,27.550020 
	C194.669418,29.383850 188.340607,30.775969 182.006897,32.145325 
	C180.549164,32.460487 179.047409,33.034607 177.611832,32.919090 
	C160.751877,31.562355 143.543945,31.653406 127.701355,24.855156 
	C120.778381,21.884424 114.319679,17.372475 108.460129,12.571780 
	C105.416649,10.078278 104.136909,5.432007 102.030212,1.379112 
	C112.354225,1.000000 122.708458,1.000000 133.560028,1.369562 
	C134.904175,7.574908 139.286285,10.365212 143.850815,12.877597 
	C155.813126,19.461796 168.223831,24.322641 182.305099,22.083494 
	C188.542450,21.091656 194.768707,20.029976 201.000000,19.000000 
	C201.000000,21.700014 201.000000,24.400026 201.000000,27.550020 
z"/>
<path fill="#110A0C" opacity="1.000000" stroke="none" 
	d="
M83.531342,1.000000 
	C82.697289,2.708899 81.743073,4.992965 80.032814,6.029231 
	C71.688965,11.084839 62.387718,13.415911 52.830048,14.979373 
	C41.879440,16.770693 31.022957,19.318033 20.014269,20.501219 
	C14.067575,21.140352 7.888608,19.618336 1.407215,19.035654 
	C1.000000,13.026108 1.000000,7.052216 1.000000,1.000000 
	C28.354181,1.000000 55.708431,1.000000 83.531342,1.000000 
z"/>
<path fill="#090A0A" opacity="1.000000" stroke="none" 
	d="
M201.000000,18.530293 
	C194.768707,20.029976 188.542450,21.091656 182.305099,22.083494 
	C168.223831,24.322641 155.813126,19.461796 143.850815,12.877597 
	C139.286285,10.365212 134.904175,7.574908 134.028687,1.369562 
	C156.217194,1.000000 178.434387,1.000000 201.000000,1.000000 
	C201.000000,6.682117 201.000000,12.371350 201.000000,18.530293 
z"/>
<path fill="#0E0D0F" opacity="1.000000" stroke="none" 
	d="
M115.999718,181.000000 
	C100.676804,173.749237 85.630104,171.343552 70.129242,181.245560 
	C59.729309,187.889084 48.231018,192.539780 35.682487,193.477936 
	C32.355053,193.726700 28.943943,192.856262 25.286219,192.249847 
	C28.724648,191.231186 32.418331,190.242874 36.176926,189.733017 
	C49.693737,187.899429 60.824757,181.239700 71.369934,173.079987 
	C85.058128,162.488220 104.271713,161.991562 118.871353,171.577148 
	C130.808289,179.414536 143.325470,185.916275 157.740356,187.607071 
	C166.796692,188.669327 175.934631,189.032013 184.994125,190.072617 
	C190.098434,190.658920 195.117889,191.984039 200.587784,192.988159 
	C201.000000,194.388885 201.000000,195.777786 200.609848,197.499786 
	C187.553421,195.284607 174.990555,192.654221 161.865158,192.737122 
	C153.725327,192.788544 145.426392,190.870651 137.462906,188.814285 
	C130.125183,186.919525 123.140121,183.658936 115.999718,181.000000 
z"/>
<path fill="#0C0C0D" opacity="1.000000" stroke="none" 
	d="
M115.694031,181.196686 
	C123.140121,183.658936 130.125183,186.919525 137.462906,188.814285 
	C145.426392,190.870651 153.725327,192.788544 161.865158,192.737122 
	C174.990555,192.654221 187.553421,195.284607 200.609848,197.916443 
	C201.000000,198.995819 201.000000,199.991623 201.000000,200.993713 
	C167.312439,201.000000 133.624878,201.000000 99.468658,201.000000 
	C101.476715,197.567368 103.939194,194.124283 106.442520,190.711166 
	C106.923859,190.054886 108.157906,189.350082 108.045135,188.948090 
	C106.125671,182.105713 111.807594,182.783417 115.694031,181.196686 
z"/>
<path fill="#433285" opacity="1.000000" stroke="none" 
	d="
M201.000000,101.000000 
	C201.000000,109.020897 201.000000,117.041801 200.531357,125.531250 
	C188.784546,125.888168 177.266098,127.318413 166.563934,122.697693 
	C163.385696,121.325470 159.898331,118.271759 158.844833,115.201889 
	C158.118378,113.085014 160.848938,109.170227 162.938660,106.886147 
	C164.705597,104.954865 167.685883,103.352928 170.277588,103.094673 
	C180.486603,102.077362 190.754166,101.647728 201.000000,101.000000 
z"/>
<path fill="#111116" opacity="1.000000" stroke="none" 
	d="
M201.000000,187.583344 
	C198.369797,187.674988 195.606720,187.757217 193.133698,186.950378 
	C184.932068,184.274658 176.561737,183.915222 168.022934,183.928467 
	C145.878265,183.962799 128.860718,174.930740 118.386894,154.853882 
	C117.470970,153.098175 116.270912,151.490707 115.229065,149.163544 
	C116.845688,146.050980 118.436058,143.589233 120.334862,140.979202 
	C122.308769,138.655899 123.974243,136.480881 125.765991,134.750763 
	C126.259277,137.316711 126.877930,139.428864 126.953232,141.560242 
	C127.521759,157.652725 138.481155,172.302261 154.284409,175.636078 
	C169.688568,178.885696 185.415039,180.607452 201.000000,183.000000 
	C201.000000,184.388885 201.000000,185.777786 201.000000,187.583344 
z"/>
<path fill="#111517" opacity="1.000000" stroke="none" 
	d="
M1.000000,31.399996 
	C9.414336,31.660412 17.827362,32.338097 26.243364,32.976540 
	C35.268810,33.661213 44.497555,33.379116 53.260307,35.268589 
	C60.205006,36.766045 67.154945,40.055630 73.079330,44.062386 
	C83.120544,50.853420 84.782707,61.161842 81.582062,72.764740 
	C80.248718,71.776184 79.310707,70.466866 78.253967,68.864563 
	C74.055634,64.480873 69.976028,60.390171 65.890526,55.921379 
	C65.192818,54.079678 64.744377,52.424435 63.768242,51.184700 
	C58.798637,44.873096 51.859402,41.384598 44.271370,40.216228 
	C29.920105,38.006474 15.431523,36.688519 1.000000,35.000000 
	C1.000000,33.933331 1.000000,32.866661 1.000000,31.399996 
z"/>
<path fill="#15131F" opacity="1.000000" stroke="none" 
	d="
M201.000000,182.571533 
	C185.415039,180.607452 169.688568,178.885696 154.284409,175.636078 
	C138.481155,172.302261 127.521759,157.652725 126.953232,141.560242 
	C126.877930,139.428864 126.259277,137.316711 125.885406,134.452377 
	C127.439865,131.527908 129.001190,129.346695 130.749298,127.593376 
	C131.501602,131.782410 131.740540,135.627945 132.686829,139.290710 
	C137.937408,159.613571 149.521103,169.431412 170.449188,172.121475 
	C180.672913,173.435623 190.818848,175.354706 201.000000,177.000000 
	C201.000000,178.714355 201.000000,180.428711 201.000000,182.571533 
z"/>
<path fill="#3E2F7C" opacity="1.000000" stroke="none" 
	d="
M201.000000,100.555832 
	C190.754166,101.647728 180.486603,102.077362 170.277588,103.094673 
	C167.685883,103.352928 164.705597,104.954865 162.938660,106.886147 
	C160.848938,109.170227 158.118378,113.085014 158.844833,115.201889 
	C159.898331,118.271759 163.385696,121.325470 166.563934,122.697693 
	C177.266098,127.318413 188.784546,125.888168 200.531357,125.999893 
	C201.000000,128.370560 201.000000,130.741104 200.532761,133.555481 
	C191.813095,133.323486 183.400024,133.407043 175.364288,131.707001 
	C169.934204,130.558182 164.684509,127.410072 160.003937,124.206757 
	C155.818085,121.342010 153.862473,116.383293 155.601486,111.372185 
	C158.222412,103.819786 163.073868,97.643883 171.399399,96.275467 
	C181.181458,94.667664 191.125946,94.048126 201.000000,93.000000 
	C201.000000,95.370560 201.000000,97.741112 201.000000,100.555832 
z"/>
<path fill="#12755F" opacity="1.000000" stroke="none" 
	d="
M1.000000,91.000000 
	C1.000000,88.958336 1.000000,86.916664 1.429793,84.439499 
	C14.680990,84.893852 26.033150,89.148773 33.991604,99.653748 
	C40.628090,108.413750 40.629341,113.294899 33.348442,120.115974 
	C31.534918,121.814964 29.594667,123.393196 27.613415,124.896088 
	C19.753597,130.858200 10.352551,132.369827 1.000000,134.000000 
	C1.000000,131.629440 1.000000,129.258896 1.438129,126.444168 
	C12.506818,125.547569 22.294638,123.027855 29.406746,114.347595 
	C32.925098,110.053490 32.714428,107.624542 28.944386,103.455971 
	C21.462425,95.183090 11.789899,91.842445 1.000000,91.000000 
z"/>
<path fill="#111A1A" opacity="1.000000" stroke="none" 
	d="
M1.000000,182.000000 
	C1.000000,180.611008 1.000000,179.222000 1.416810,177.404175 
	C8.374220,175.925308 14.925258,174.936035 21.453476,173.813980 
	C41.583805,170.353989 56.343521,160.552399 61.263432,139.504303 
	C62.689655,133.402710 63.602287,127.181061 64.923340,121.306931 
	C66.662910,123.736702 68.229507,125.873985 69.493317,128.187210 
	C68.452904,130.853043 67.318428,133.299515 67.040573,135.839706 
	C64.860619,155.768890 55.736305,170.844894 35.825409,176.510208 
	C24.604683,179.702866 12.633253,180.257172 1.000000,182.000000 
z"/>
<path fill="#332864" opacity="1.000000" stroke="none" 
	d="
M201.000000,142.000000 
	C201.000000,143.714401 201.000000,145.428787 200.540314,147.571274 
	C191.030792,146.914001 181.790543,146.640442 172.971420,144.571609 
	C155.470612,140.466217 143.708908,122.571190 147.614624,108.149498 
	C147.951904,106.904106 147.135269,105.346199 146.978882,103.614227 
	C150.313766,98.841270 153.524399,94.387558 157.117126,89.919403 
	C158.294662,89.700195 159.178268,89.653763 159.872467,89.267197 
	C172.676529,82.137177 186.553009,79.812546 201.000000,80.000000 
	C201.000000,80.750000 201.000000,81.500000 200.543823,82.625351 
	C188.733429,83.221497 177.665863,84.758636 167.027878,89.106499 
	C156.970947,93.216873 147.790268,108.216652 150.955444,119.149269 
	C154.530457,131.497467 163.380600,137.416351 174.816238,139.693207 
	C183.358627,141.393997 192.259018,141.296646 201.000000,142.000000 
z"/>
<path fill="#125849" opacity="1.000000" stroke="none" 
	d="
M1.000000,74.000000 
	C1.000000,72.611000 1.000000,71.222008 1.405762,69.451599 
	C13.949268,70.610100 25.381762,73.974518 35.199291,81.699677 
	C36.162777,82.457809 37.629135,82.576881 39.061249,83.277313 
	C41.897461,87.352997 44.534504,91.143929 47.157185,95.141342 
	C47.142826,95.347816 47.100491,95.759583 46.970703,96.102982 
	C46.886524,97.916115 46.682560,99.445389 47.016762,100.846283 
	C49.999950,113.351097 46.177376,123.904160 37.564240,132.865417 
	C27.639973,143.190811 14.675846,146.543793 1.000000,148.000000 
	C1.000000,146.611008 1.000000,145.222000 1.435655,143.416565 
	C16.381376,141.935013 29.129852,137.021744 38.726913,125.640381 
	C44.555935,118.727615 47.078083,110.989563 43.592682,102.034721 
	C36.736790,84.420280 21.529137,74.377083 1.000000,74.000000 
z"/>
<path fill="#111114" opacity="1.000000" stroke="none" 
	d="
M86.441437,150.777008 
	C79.624817,150.551331 75.600883,153.646774 71.839493,159.647858 
	C61.270054,176.510803 45.451103,185.084641 25.417538,186.088623 
	C17.510508,186.484879 9.653999,187.889236 1.387243,188.917282 
	C1.000000,188.250000 1.000000,187.500000 1.403419,186.364075 
	C9.325088,184.977783 16.822420,183.767883 24.365358,183.014832 
	C51.034420,180.352325 69.608650,166.494339 71.097870,137.681183 
	C71.181114,136.070511 72.451614,134.521194 73.458313,133.125214 
	C75.906334,136.304016 78.065559,139.300919 80.215683,142.671738 
	C82.284859,145.622772 84.363144,148.199890 86.441437,150.777008 
z"/>
<path fill="#191628" opacity="1.000000" stroke="none" 
	d="
M201.000000,176.571533 
	C190.818848,175.354706 180.672913,173.435623 170.449188,172.121475 
	C149.521103,169.431412 137.937408,159.613571 132.686829,139.290710 
	C131.740540,135.627945 131.501602,131.782410 130.858093,127.327415 
	C131.461105,125.732468 132.142090,124.831352 133.124298,124.150421 
	C134.291397,126.994423 135.467224,129.560242 135.970871,132.251846 
	C138.502563,145.781662 144.980194,156.376984 157.807007,162.398911 
	C171.492294,168.823868 186.351776,169.390121 201.000000,171.000000 
	C201.000000,172.714355 201.000000,174.428711 201.000000,176.571533 
z"/>
<path fill="#112221" opacity="1.000000" stroke="none" 
	d="
M64.750366,121.014450 
	C63.602287,127.181061 62.689655,133.402710 61.263432,139.504303 
	C56.343521,160.552399 41.583805,170.353989 21.453476,173.813980 
	C14.925258,174.936035 8.374220,175.925308 1.416810,176.987671 
	C1.000000,175.285645 1.000000,173.571289 1.445043,171.428680 
	C7.311258,170.292130 12.819180,169.973801 18.134863,168.791306 
	C28.055737,166.584381 37.770237,163.776550 45.325584,156.220352 
	C54.722576,146.822311 58.909695,135.280487 60.076168,122.320122 
	C60.239910,120.500824 61.348225,118.766548 62.265785,117.143166 
	C63.030460,117.854530 63.548664,118.415649 64.110565,119.249496 
	C64.352959,120.019630 64.551659,120.517044 64.750366,121.014450 
z"/>
<path fill="#131219" opacity="1.000000" stroke="none" 
	d="
M121.676247,68.236053 
	C118.841835,64.930199 121.343025,62.239506 122.969101,59.771641 
	C128.367889,51.578003 136.310577,46.993164 145.734528,45.027382 
	C150.584412,44.015720 155.624069,42.838760 160.484543,43.158127 
	C174.115326,44.053764 187.173584,41.383385 200.610016,38.083549 
	C201.000000,39.714359 201.000000,41.428715 200.569183,43.572124 
	C193.773758,45.010822 187.416428,46.069191 181.042862,47.018742 
	C171.412308,48.453529 161.741196,49.647324 152.158432,51.344933 
	C150.274368,51.678699 148.712906,53.833469 146.550354,55.152020 
	C139.175293,54.468868 132.789337,55.486607 127.498520,61.057568 
	C125.360832,63.542156 123.518539,65.889107 121.676247,68.236053 
z"/>
<path fill="#3A2C71" opacity="1.000000" stroke="none" 
	d="
M201.000000,92.571533 
	C191.125946,94.048126 181.181458,94.667664 171.399399,96.275467 
	C163.073868,97.643883 158.222412,103.819786 155.601486,111.372185 
	C153.862473,116.383293 155.818085,121.342010 160.003937,124.206757 
	C164.684509,127.410072 169.934204,130.558182 175.364288,131.707001 
	C183.400024,133.407043 191.813095,133.323486 200.532761,133.999664 
	C201.000000,135.714355 201.000000,137.428711 200.547302,139.571503 
	C194.477097,139.587158 188.805008,139.530228 183.254837,138.678635 
	C174.813812,137.383469 167.034103,134.532288 160.222595,128.881332 
	C146.095413,117.161163 153.838791,101.004265 164.828629,94.596497 
	C176.048157,88.054810 188.642273,88.099594 201.000000,87.000000 
	C201.000000,88.714355 201.000000,90.428719 201.000000,92.571533 
z"/>
<path fill="#126250" opacity="1.000000" stroke="none" 
	d="
M1.000000,74.416664 
	C21.529137,74.377083 36.736790,84.420280 43.592682,102.034721 
	C47.078083,110.989563 44.555935,118.727615 38.726913,125.640381 
	C29.129852,137.021744 16.381376,141.935013 1.435655,143.000061 
	C1.000000,141.611115 1.000000,140.222214 1.430456,138.416016 
	C14.241371,137.321884 25.179993,133.025848 34.528664,124.852089 
	C42.852238,117.574577 44.460732,110.166687 39.216434,100.565979 
	C31.010361,85.543175 16.843699,80.693146 1.000000,79.000000 
	C1.000000,77.611107 1.000000,76.222221 1.000000,74.416664 
z"/>
<path fill="#1D1933" opacity="1.000000" stroke="none" 
	d="
M201.000000,170.583344 
	C186.351776,169.390121 171.492294,168.823868 157.807007,162.398911 
	C144.980194,156.376984 138.502563,145.781662 135.970871,132.251846 
	C135.467224,129.560242 134.291397,126.994423 133.244476,123.838654 
	C134.133972,121.878639 135.204529,120.450577 136.569458,119.209320 
	C137.589233,122.074097 138.407928,124.730797 139.024033,127.433685 
	C141.762177,139.446411 146.349258,149.973145 158.120560,156.241531 
	C171.620697,163.430527 186.343582,164.367416 201.000000,166.000000 
	C201.000000,167.388885 201.000000,168.777786 201.000000,170.583344 
z"/>
<path fill="#111517" opacity="1.000000" stroke="none" 
	d="
M73.169525,132.943329 
	C72.451614,134.521194 71.181114,136.070511 71.097870,137.681183 
	C69.608650,166.494339 51.034420,180.352325 24.365358,183.014832 
	C16.822420,183.767883 9.325088,184.977783 1.403419,185.989075 
	C1.000000,184.933334 1.000000,183.866653 1.000000,182.399994 
	C12.633253,180.257172 24.604683,179.702866 35.825409,176.510208 
	C55.736305,170.844894 64.860619,155.768890 67.040573,135.839706 
	C67.318428,133.299515 68.452904,130.853043 69.701836,128.360748 
	C70.569252,128.977768 70.925369,129.597198 71.431564,130.523575 
	C72.110939,131.534805 72.640236,132.239059 73.169525,132.943329 
z"/>
<path fill="#111C1C" opacity="1.000000" stroke="none" 
	d="
M1.000000,35.428463 
	C15.431523,36.688519 29.920105,38.006474 44.271370,40.216228 
	C51.859402,41.384598 58.798637,44.873096 63.768242,51.184700 
	C64.744377,52.424435 65.192818,54.079678 65.481339,55.852921 
	C61.051823,55.813042 57.025585,55.463520 52.919350,54.770157 
	C51.179047,52.927288 49.737110,51.021805 47.823727,49.993866 
	C33.177292,42.125317 16.894304,42.534210 1.000000,41.000000 
	C1.000000,39.285641 1.000000,37.571285 1.000000,35.428463 
z"/>
<path fill="#126B57" opacity="1.000000" stroke="none" 
	d="
M1.000000,79.416664 
	C16.843699,80.693146 31.010361,85.543175 39.216434,100.565979 
	C44.460732,110.166687 42.852238,117.574577 34.528664,124.852089 
	C25.179993,133.025848 14.241371,137.321884 1.430456,137.999344 
	C1.000000,136.933334 1.000000,135.866653 1.000000,134.399994 
	C10.352551,132.369827 19.753597,130.858200 27.613415,124.896088 
	C29.594667,123.393196 31.534918,121.814964 33.348442,120.115974 
	C40.629341,113.294899 40.628090,108.413750 33.991604,99.653748 
	C26.033150,89.148773 14.680990,84.893852 1.429793,84.001999 
	C1.000000,82.611107 1.000000,81.222221 1.000000,79.416664 
z"/>
<path fill="#112B27" opacity="1.000000" stroke="none" 
	d="
M62.019310,116.992912 
	C61.348225,118.766548 60.239910,120.500824 60.076168,122.320122 
	C58.909695,135.280487 54.722576,146.822311 45.325584,156.220352 
	C37.770237,163.776550 28.055737,166.584381 18.134863,168.791306 
	C12.819180,169.973801 7.311258,170.292130 1.445043,171.000214 
	C1.000000,169.611115 1.000000,168.222214 1.433053,166.415924 
	C13.530098,164.915741 24.977346,162.924133 35.211311,156.794647 
	C48.695721,148.718353 54.528801,135.907257 57.074760,121.043045 
	C57.492172,118.606071 58.950321,116.347366 60.181179,114.186272 
	C60.963028,115.241821 61.491169,116.117363 62.019310,116.992912 
z"/>
<path fill="#221C40" opacity="1.000000" stroke="none" 
	d="
M201.000000,165.583344 
	C186.343582,164.367416 171.620697,163.430527 158.120560,156.241531 
	C146.349258,149.973145 141.762177,139.446411 139.024033,127.433685 
	C138.407928,124.730797 137.589233,122.074097 136.653809,118.921394 
	C136.946411,117.597076 137.449005,116.747498 138.113495,115.871353 
	C138.275391,115.844795 138.600510,115.800789 138.954605,115.971283 
	C140.201248,118.901802 141.300491,121.613968 141.952316,124.429710 
	C145.774338,140.940063 155.280792,152.232727 172.069824,156.132553 
	C181.577118,158.340958 191.347900,159.415024 201.000000,161.000000 
	C201.000000,162.388885 201.000000,163.777786 201.000000,165.583344 
z"/>
<path fill="#128168" opacity="1.000000" stroke="none" 
	d="
M1.000000,121.000000 
	C1.000000,113.312424 1.000000,105.624847 1.432784,97.468620 
	C7.213852,98.535614 12.854189,99.466698 17.792007,101.852036 
	C20.414127,103.118721 23.025530,106.714180 23.488050,109.603226 
	C24.178871,113.918274 20.224445,116.375877 16.506546,117.508369 
	C11.452146,119.047974 6.179214,119.870148 1.000000,121.000000 
z"/>
<path fill="#34286C" opacity="1.000000" stroke="none" 
	d="
M201.000000,86.600006 
	C188.642273,88.099594 176.048157,88.054810 164.828629,94.596497 
	C153.838791,101.004265 146.095413,117.161163 160.222595,128.881332 
	C167.034103,134.532288 174.813812,137.383469 183.254837,138.678635 
	C188.805008,139.530228 194.477097,139.587158 200.547302,139.999969 
	C201.000000,140.444443 201.000000,140.888901 201.000000,141.666672 
	C192.259018,141.296646 183.358627,141.393997 174.816238,139.693207 
	C163.380600,137.416351 154.530457,131.497467 150.955444,119.149269 
	C147.790268,108.216652 156.970947,93.216873 167.027878,89.106499 
	C177.665863,84.758636 188.733429,83.221497 200.543823,83.000351 
	C201.000000,84.066673 201.000000,85.133339 201.000000,86.600006 
z"/>
<path fill="#11352F" opacity="1.000000" stroke="none" 
	d="
M59.927475,114.006271 
	C58.950321,116.347366 57.492172,118.606071 57.074760,121.043045 
	C54.528801,135.907257 48.695721,148.718353 35.211311,156.794647 
	C24.977346,162.924133 13.530098,164.915741 1.433053,165.999268 
	C1.000000,164.611115 1.000000,163.222214 1.424626,161.413162 
	C11.740099,158.321899 22.341612,157.094208 31.361139,152.653412 
	C46.205711,145.344620 52.509808,131.288895 54.992336,115.402382 
	C55.281788,113.550087 56.249817,111.803833 57.068970,110.281982 
	C58.132278,111.705788 59.029877,112.856026 59.927475,114.006271 
z"/>
<path fill="#127B63" opacity="1.000000" stroke="none" 
	d="
M1.000000,121.416656 
	C6.179214,119.870148 11.452146,119.047974 16.506546,117.508369 
	C20.224445,116.375877 24.178871,113.918274 23.488050,109.603226 
	C23.025530,106.714180 20.414127,103.118721 17.792007,101.852036 
	C12.854189,99.466698 7.213852,98.535614 1.432784,96.999985 
	C1.000000,95.285645 1.000000,93.571281 1.000000,91.428467 
	C11.789899,91.842445 21.462425,95.183090 28.944386,103.455971 
	C32.714428,107.624542 32.925098,110.053490 29.406746,114.347595 
	C22.294638,123.027855 12.506818,125.547569 1.438129,126.000000 
	C1.000000,124.611107 1.000000,123.222221 1.000000,121.416656 
z"/>
<path fill="#2D2458" opacity="1.000000" stroke="none" 
	d="
M201.000000,79.550018 
	C186.553009,79.812546 172.676529,82.137177 159.872467,89.267197 
	C159.178268,89.653763 158.294662,89.700195 157.253036,89.589706 
	C158.746658,85.493874 160.486465,81.713295 162.603790,77.932678 
	C164.102448,77.710571 165.319000,77.697105 166.330002,77.234428 
	C177.360809,72.186195 189.099960,71.162827 201.000000,71.000000 
	C201.000000,73.700012 201.000000,76.400032 201.000000,79.550018 
z"/>
<path fill="#113E36" opacity="1.000000" stroke="none" 
	d="
M56.903259,110.008415 
	C56.249817,111.803833 55.281788,113.550087 54.992336,115.402382 
	C52.509808,131.288895 46.205711,145.344620 31.361139,152.653412 
	C22.341612,157.094208 11.740099,158.321899 1.424626,160.996490 
	C1.000000,159.611115 1.000000,158.222214 1.444831,156.416992 
	C8.536817,154.739182 15.474165,154.295273 21.775200,152.058685 
	C38.774857,146.024567 49.016994,133.826187 52.134975,115.881042 
	C52.728714,112.463852 53.446247,109.068176 54.369637,105.843811 
	C55.435246,106.992859 56.237881,107.960678 57.039623,109.202721 
	C56.993576,109.654106 56.948418,109.831261 56.903259,110.008415 
z"/>
<path fill="#112221" opacity="1.000000" stroke="none" 
	d="
M1.000000,41.416664 
	C16.894304,42.534210 33.177292,42.125317 47.823727,49.993866 
	C49.737110,51.021805 51.179047,52.927288 52.646729,54.987999 
	C50.344906,56.520885 48.235699,57.492085 45.945721,58.143959 
	C44.308235,56.781185 42.952866,55.542580 41.378784,54.725132 
	C28.721586,48.152058 14.775398,47.455639 1.000000,46.000000 
	C1.000000,44.611111 1.000000,43.222221 1.000000,41.416664 
z"/>
<path fill="#292150" opacity="1.000000" stroke="none" 
	d="
M201.000000,153.000000 
	C201.000000,154.066788 201.000000,155.133575 200.563660,156.598999 
	C193.877106,156.304840 187.581085,155.889496 181.385468,154.866272 
	C164.137527,152.017822 150.159058,144.667496 144.490097,126.640915 
	C143.062500,122.101341 141.941254,117.465408 140.783142,112.576706 
	C141.737976,111.108780 142.588882,109.937904 143.722961,109.090553 
	C144.337662,111.006218 144.824890,112.583710 144.976257,114.192787 
	C146.311401,128.385117 152.348526,139.422348 165.643295,145.851898 
	C176.843140,151.268295 189.055023,151.413773 201.000000,153.000000 
z"/>
<path fill="#161420" opacity="1.000000" stroke="none" 
	d="
M147.002655,55.148392 
	C148.712906,53.833469 150.274368,51.678699 152.158432,51.344933 
	C161.741196,49.647324 171.412308,48.453529 181.042862,47.018742 
	C187.416428,46.069191 193.773758,45.010822 200.569183,44.000587 
	C201.000000,45.388889 201.000000,46.777779 200.593506,48.618580 
	C186.845718,51.367504 173.488251,53.577766 160.181610,56.060478 
	C158.310745,56.409538 156.688568,58.091541 154.620636,59.053696 
	C151.860886,57.683357 149.431763,56.415874 147.002655,55.148392 
z"/>
<path fill="#124F42" opacity="1.000000" stroke="none" 
	d="
M1.000000,148.399994 
	C14.675846,146.543793 27.639973,143.190811 37.564240,132.865417 
	C46.177376,123.904160 49.999950,113.351097 47.016762,100.846283 
	C46.682560,99.445389 46.886524,97.916115 47.218468,96.331406 
	C48.985573,97.932533 50.375134,99.648613 51.847027,101.677567 
	C52.035362,102.627800 52.141365,103.265160 52.006588,104.230354 
	C51.497883,106.010277 51.354103,107.498779 50.940762,108.908234 
	C49.038792,115.393761 48.144985,122.467751 44.907101,128.213501 
	C35.411568,145.063690 19.425552,151.044998 1.000000,152.000000 
	C1.000000,150.933334 1.000000,149.866653 1.000000,148.399994 
z"/>
<path fill="#191628" opacity="1.000000" stroke="none" 
	d="
M154.951294,59.156555 
	C156.688568,58.091541 158.310745,56.409538 160.181610,56.060478 
	C173.488251,53.577766 186.845718,51.367504 200.593506,49.035248 
	C201.000000,51.041668 201.000000,53.083332 200.553726,55.560890 
	C192.709106,56.962551 185.219849,57.495899 177.940140,59.026073 
	C171.719101,60.333714 165.738556,62.785362 159.409180,64.492088 
	C157.761597,62.554306 156.356445,60.855431 154.951294,59.156555 
z"/>
<path fill="#2D2458" opacity="1.000000" stroke="none" 
	d="
M201.000000,152.583344 
	C189.055023,151.413773 176.843140,151.268295 165.643295,145.851898 
	C152.348526,139.422348 146.311401,128.385117 144.976257,114.192787 
	C144.824890,112.583710 144.337662,111.006218 143.857910,108.776756 
	C144.490967,106.794785 145.272293,105.450150 146.253296,104.059769 
	C146.452957,104.014038 146.854660,103.933456 146.854645,103.933456 
	C147.135269,105.346199 147.951904,106.904106 147.614624,108.149498 
	C143.708908,122.571190 155.470612,140.466217 172.971420,144.571609 
	C181.790543,146.640442 191.030792,146.914001 200.540314,147.999680 
	C201.000000,149.388885 201.000000,150.777786 201.000000,152.583344 
z"/>
<path fill="#11473C" opacity="1.000000" stroke="none" 
	d="
M1.000000,152.399994 
	C19.425552,151.044998 35.411568,145.063690 44.907101,128.213501 
	C48.144985,122.467751 49.038792,115.393761 50.940762,108.908234 
	C51.354103,107.498779 51.497883,106.010277 52.270977,104.302315 
	C53.219650,104.585159 53.663158,105.123863 54.106659,105.662575 
	C53.446247,109.068176 52.728714,112.463852 52.134975,115.881042 
	C49.016994,133.826187 38.774857,146.024567 21.775200,152.058685 
	C15.474165,154.295273 8.536817,154.739182 1.444831,156.000336 
	C1.000000,154.933334 1.000000,153.866653 1.000000,152.399994 
z"/>
<path fill="#261F47" opacity="1.000000" stroke="none" 
	d="
M140.679214,112.873756 
	C141.941254,117.465408 143.062500,122.101341 144.490097,126.640915 
	C150.159058,144.667496 164.137527,152.017822 181.385468,154.866272 
	C187.581085,155.889496 193.877106,156.304840 200.563660,156.998810 
	C201.000000,158.066666 201.000000,159.133347 201.000000,160.600006 
	C191.347900,159.415024 181.577118,158.340958 172.069824,156.132553 
	C155.280792,152.232727 145.774338,140.940063 141.952316,124.429710 
	C141.300491,121.613968 140.201248,118.901802 139.042175,115.675797 
	C139.410187,114.431122 140.044693,113.652435 140.679214,112.873756 
z"/>
<path fill="#113E36" opacity="1.000000" stroke="none" 
	d="
M1.000000,60.000000 
	C1.000000,58.611004 1.000000,57.222004 1.441253,55.417141 
	C11.553297,56.993866 21.262863,58.821033 30.872713,61.073612 
	C34.008183,61.808578 36.883793,63.652134 39.869255,65.351547 
	C39.161247,67.804413 38.462231,69.894402 37.442055,71.889450 
	C30.947227,68.997993 24.944220,65.689064 18.548584,63.559048 
	C12.927434,61.686966 6.866629,61.135002 1.000000,60.000000 
z"/>
<path fill="#112B27" opacity="1.000000" stroke="none" 
	d="
M1.000000,46.399994 
	C14.775398,47.455639 28.721586,48.152058 41.378784,54.725132 
	C42.952866,55.542580 44.308235,56.781185 45.766273,58.367805 
	C44.849651,59.608746 43.931702,60.306511 42.660843,60.925293 
	C29.403614,53.936569 15.344023,51.426659 1.000000,50.000000 
	C1.000000,48.933331 1.000000,47.866661 1.000000,46.399994 
z"/>
<path fill="#1D1933" opacity="1.000000" stroke="none" 
	d="
M159.651627,64.730995 
	C165.738556,62.785362 171.719101,60.333714 177.940140,59.026073 
	C185.219849,57.495899 192.709106,56.962551 200.553726,55.998390 
	C201.000000,57.388889 201.000000,58.777779 200.571259,60.586052 
	C196.042511,61.514439 191.902878,61.812847 187.850632,62.575516 
	C178.930557,64.254356 170.054581,66.167610 160.979797,67.738266 
	C160.416550,66.571220 160.034088,65.651108 159.651627,64.730995 
z"/>
<path fill="#221C40" opacity="1.000000" stroke="none" 
	d="
M161.160614,67.985191 
	C170.054581,66.167610 178.930557,64.254356 187.850632,62.575516 
	C191.902878,61.812847 196.042511,61.514439 200.571259,61.002716 
	C201.000000,62.714359 201.000000,64.428719 200.538116,66.569931 
	C190.170761,68.383583 180.258148,69.722214 170.364471,71.188484 
	C167.631393,71.593544 164.954666,72.378632 162.151917,72.634659 
	C161.754715,70.848381 161.457657,69.416786 161.160614,67.985191 
z"/>
<path fill="#11352F" opacity="1.000000" stroke="none" 
	d="
M1.000000,50.416664 
	C15.344023,51.426659 29.403614,53.936569 42.546188,61.224609 
	C41.815708,62.731499 40.846977,63.860088 39.878246,64.988678 
	C36.883793,63.652134 34.008183,61.808578 30.872713,61.073612 
	C21.262863,58.821033 11.553297,56.993866 1.441253,55.000637 
	C1.000000,53.611111 1.000000,52.222221 1.000000,50.416664 
z"/>
<path fill="#124F42" opacity="1.000000" stroke="none" 
	d="
M38.862076,82.992577 
	C37.629135,82.576881 36.162777,82.457809 35.199291,81.699677 
	C25.381762,73.974518 13.949268,70.610100 1.405762,69.035095 
	C1.000000,67.933327 1.000000,66.866661 1.438452,65.399612 
	C12.614721,65.598701 22.717630,68.366219 32.106419,73.695465 
	C33.796684,74.654884 35.702278,75.234947 37.619186,76.379135 
	C38.107304,78.842934 38.484692,80.917755 38.862076,82.992577 
z"/>
<path fill="#11473C" opacity="1.000000" stroke="none" 
	d="
M37.508453,75.990158 
	C35.702278,75.234947 33.796684,74.654884 32.106419,73.695465 
	C22.717630,68.366219 12.614721,65.598701 1.438452,64.999619 
	C1.000000,63.611111 1.000000,62.222221 1.000000,60.416664 
	C6.866629,61.135002 12.927434,61.686966 18.548584,63.559048 
	C24.944220,65.689064 30.947227,68.997993 37.472149,72.290939 
	C37.718422,73.854980 37.613438,74.922569 37.508453,75.990158 
z"/>
<path fill="#261F47" opacity="1.000000" stroke="none" 
	d="
M162.252075,72.989349 
	C164.954666,72.378632 167.631393,71.593544 170.364471,71.188484 
	C180.258148,69.722214 190.170761,68.383583 200.538116,66.998390 
	C201.000000,68.066673 201.000000,69.133339 201.000000,70.600006 
	C189.099960,71.162827 177.360809,72.186195 166.330002,77.234428 
	C165.319000,77.697105 164.102448,77.710571 162.515381,77.949158 
	C162.049408,77.965675 161.889572,78.048294 161.980652,77.634293 
	C162.131851,75.809982 162.191956,74.399666 162.252075,72.989349 
z"/>
<path fill="#0E0D0F" opacity="1.000000" stroke="none" 
	d="
M3.624265,194.000854 
	C3.217583,194.644516 2.436022,195.287796 1.327231,195.965546 
	C1.000000,195.555557 1.000000,195.111099 1.000000,194.333328 
	C1.749795,194.000168 2.499591,194.000336 3.624265,194.000854 
z"/>
<path fill="#8870FE" opacity="1.000000" stroke="none" 
	d="
M137.951584,115.897911 
	C137.449005,116.747498 136.946411,117.597076 136.359451,118.734581 
	C135.204529,120.450577 134.133972,121.878639 132.943237,123.618469 
	C132.142090,124.831352 131.461105,125.732468 130.671310,126.899536 
	C129.001190,129.346695 127.439865,131.527908 125.759125,134.007492 
	C123.974243,136.480881 122.308769,138.655899 120.129066,140.692596 
	C119.465675,137.011047 119.316498,133.467834 119.137390,129.556122 
	C117.175964,125.934425 115.244469,122.681206 113.227402,119.106880 
	C109.152458,113.164139 105.163109,107.542511 101.067886,101.565643 
	C100.653122,100.534584 100.344223,99.858765 100.035332,99.182945 
	C101.479332,97.221184 102.923332,95.259415 104.904007,93.354065 
	C111.480728,97.276222 117.520782,101.141960 123.679070,105.392876 
	C124.796944,111.968132 125.852753,112.738098 131.265961,111.049767 
	C133.723251,112.716011 135.837418,114.306961 137.951584,115.897911 
z"/>
<path fill="#8269FB" opacity="1.000000" stroke="none" 
	d="
M123.560837,105.007690 
	C117.520782,101.141960 111.480728,97.276222 105.203194,93.169357 
	C109.414429,86.390152 113.863136,79.852097 118.890999,73.310394 
	C122.062340,75.361855 124.654526,77.416962 127.171936,79.848328 
	C125.918381,88.485634 124.739609,96.746658 123.560837,105.007690 
z"/>
<path fill="#4CC2A6" opacity="1.000000" stroke="none" 
	d="
M51.764690,101.364700 
	C50.375134,99.648613 48.985573,97.932533 47.348251,95.988014 
	C47.100491,95.759583 47.142826,95.347816 47.364601,94.895889 
	C50.062889,91.724411 52.539402,89.004852 55.266350,86.240982 
	C55.676716,86.140465 55.836643,86.084251 56.402748,86.123726 
	C63.857414,85.874344 66.537666,83.627213 69.349602,75.918396 
	C72.588417,73.613091 75.480553,71.385315 78.372688,69.157547 
	C79.310707,70.466866 80.248718,71.776184 81.522247,73.201965 
	C82.871956,74.993073 83.886162,76.667717 84.531540,78.703247 
	C77.376358,83.723480 70.570480,88.355103 63.840092,93.093918 
	C63.291466,93.480209 63.258339,94.598656 62.787640,95.511009 
	C62.136963,95.789070 61.684322,95.933014 60.848557,96.087723 
	C57.565182,97.853897 54.664936,99.609299 51.764690,101.364700 
z"/>
<path fill="#52C7A9" opacity="1.000000" stroke="none" 
	d="
M62.985680,95.376892 
	C63.258339,94.598656 63.291466,93.480209 63.840092,93.093918 
	C70.570480,88.355103 77.376358,83.723480 84.524155,79.034958 
	C86.271202,80.750099 87.656799,82.494423 88.838150,84.740440 
	C86.854958,86.432556 84.951324,87.474548 83.322014,88.843132 
	C79.481178,92.069328 75.771080,95.451187 71.655762,98.810013 
	C70.257057,98.385490 69.210701,97.921028 67.911644,97.274353 
	C66.101196,96.520386 64.543434,95.948639 62.985680,95.376892 
z"/>
<path fill="#5FD0AD" opacity="1.000000" stroke="none" 
	d="
M99.783455,99.043694 
	C100.344223,99.858765 100.653122,100.534584 100.748795,101.722168 
	C97.187820,104.568489 93.840088,106.903038 90.177132,109.147736 
	C86.892654,107.084274 83.923401,105.110657 81.044281,102.799393 
	C85.450073,98.915573 89.765724,95.369408 94.081375,91.823242 
	C95.898109,94.183640 97.714844,96.544037 99.783455,99.043694 
z"/>
<path fill="#56CAAA" opacity="1.000000" stroke="none" 
	d="
M94.004066,91.499016 
	C89.765724,95.369408 85.450073,98.915573 80.692390,102.728813 
	C77.502937,101.587280 74.755516,100.178673 72.008095,98.770073 
	C75.771080,95.451187 79.481178,92.069328 83.322014,88.843132 
	C84.951324,87.474548 86.854958,86.432556 88.940079,85.062576 
	C90.806419,86.980286 92.366585,89.077538 94.004066,91.499016 
z"/>
<path fill="#765BFA" opacity="1.000000" stroke="none" 
	d="
M127.246719,79.472061 
	C124.654526,77.416962 122.062340,75.361855 119.171112,73.129303 
	C119.714470,71.591576 120.556862,70.231293 121.537750,68.553535 
	C123.518539,65.889107 125.360832,63.542156 127.868225,61.097816 
	C130.710098,62.674671 132.886856,64.348915 134.900665,66.319794 
	C132.240723,70.901642 129.743713,75.186852 127.246719,79.472061 
z"/>
<path fill="#79E6BC" opacity="1.000000" stroke="none" 
	d="
M119.167328,129.924606 
	C119.316498,133.467834 119.465675,137.011047 119.820641,140.840881 
	C118.436058,143.589233 116.845688,146.050980 115.144928,148.837540 
	C107.729576,155.465866 99.737831,157.606445 90.435516,152.643829 
	C92.213280,150.034744 94.218704,147.964859 96.640488,145.917374 
	C104.659195,146.237900 107.368271,144.774292 110.092003,138.652100 
	C110.508652,136.541931 110.750404,134.771545 111.356827,132.970276 
	C114.203438,131.934464 116.685387,130.929535 119.167328,129.924606 
z"/>
<path fill="#73E0B9" opacity="1.000000" stroke="none" 
	d="
M96.224136,145.894958 
	C94.218704,147.964859 92.213280,150.034744 90.111023,152.415298 
	C89.011803,152.132080 88.009407,151.538193 86.724228,150.860657 
	C84.363144,148.199890 82.284859,145.622772 80.598877,142.570236 
	C83.360374,140.718735 85.729553,139.342651 88.348015,138.181793 
	C91.139572,140.896332 93.681847,143.395645 96.224136,145.894958 
z"/>
<path fill="#0E0D0F" opacity="1.000000" stroke="none" 
	d="
M22.555159,192.000824 
	C19.894321,192.469360 16.789782,192.937485 13.343303,193.202805 
	C16.038061,192.666794 19.074757,192.333588 22.555159,192.000824 
z"/>
<path fill="#0E0D0F" opacity="1.000000" stroke="none" 
	d="
M10.645119,193.007355 
	C9.842046,193.454315 8.685040,193.907425 7.264668,194.180252 
	C8.097930,193.671158 9.194559,193.342316 10.645119,193.007355 
z"/>
<path fill="#41B89F" opacity="1.000000" stroke="none" 
	d="
M78.253967,68.864563 
	C75.480553,71.385315 72.588417,73.613091 69.264160,75.550186 
	C67.450439,68.597069 64.278671,65.106155 58.991623,64.428940 
	C54.303532,63.828449 50.381054,66.172447 47.745522,71.313904 
	C45.992245,79.594894 47.834202,83.184494 55.015915,86.285294 
	C52.539402,89.004852 50.062889,91.724411 47.378960,94.689415 
	C44.534504,91.143929 41.897461,87.352997 39.061249,83.277313 
	C38.484692,80.917755 38.107304,78.842934 37.619186,76.379135 
	C37.613438,74.922569 37.718422,73.854980 37.793308,72.385895 
	C38.462231,69.894402 39.161247,67.804413 39.869255,65.351547 
	C40.846977,63.860088 41.815708,62.731499 42.899097,61.303589 
	C43.931702,60.306511 44.849651,59.608746 45.947044,58.687130 
	C48.235699,57.492085 50.344906,56.520885 52.726730,55.331841 
	C57.025585,55.463520 61.051823,55.813042 65.487244,56.231014 
	C69.976028,60.390171 74.055634,64.480873 78.253967,68.864563 
z"/>
<path fill="#5FD0AD" opacity="1.000000" stroke="none" 
	d="
M71.281479,130.216614 
	C70.925369,129.597198 70.569252,128.977768 70.004623,128.184814 
	C68.229507,125.873985 66.662910,123.736702 64.923340,121.306931 
	C64.551659,120.517044 64.352959,120.019630 64.387741,119.065933 
	C66.784874,116.980408 68.948517,115.351181 71.393967,113.934250 
	C74.380646,118.103577 77.085518,122.060608 79.452942,126.102913 
	C76.504158,127.530991 73.892815,128.873795 71.281479,130.216614 
z"/>
<path fill="#765BFA" opacity="1.000000" stroke="none" 
	d="
M146.978897,103.614227 
	C146.854660,103.933456 146.452957,104.014038 146.074036,103.771675 
	C143.787720,101.657867 141.880341,99.786423 140.031433,97.633041 
	C140.438950,96.677048 140.787964,96.002998 141.422577,95.131264 
	C145.527451,88.292068 149.346725,81.650558 153.524933,75.038910 
	C156.552460,76.061935 159.221008,77.055115 161.889572,78.048294 
	C161.889572,78.048294 162.049408,77.965675 162.137833,77.949196 
	C160.486465,81.713295 158.746658,85.493874 156.870941,89.604149 
	C153.524399,94.387558 150.313766,98.841270 146.978897,103.614227 
z"/>
<path fill="#69D8B4" opacity="1.000000" stroke="none" 
	d="
M71.431564,130.523575 
	C73.892815,128.873795 76.504158,127.530991 79.647636,126.254913 
	C80.611481,126.542404 81.043182,126.763176 81.538284,127.351151 
	C83.767372,131.134430 85.933052,134.550491 88.098732,137.966568 
	C85.729553,139.342651 83.360374,140.718735 80.607986,142.196320 
	C78.065559,139.300919 75.906334,136.304016 73.458313,133.125214 
	C72.640236,132.239059 72.110939,131.534805 71.431564,130.523575 
z"/>
<path fill="#56CAAA" opacity="1.000000" stroke="none" 
	d="
M71.112160,113.721954 
	C68.948517,115.351181 66.784874,116.980408 64.344055,118.793198 
	C63.548664,118.415649 63.030460,117.854530 62.265781,117.143166 
	C61.491169,116.117363 60.963028,115.241821 60.181183,114.186272 
	C59.029877,112.856026 58.132278,111.705788 57.068970,110.281982 
	C56.948418,109.831261 56.993576,109.654106 57.311913,108.953003 
	C59.872234,107.004883 62.159374,105.580711 64.630890,104.343399 
	C65.212296,105.012680 65.609322,105.495102 66.161560,106.277809 
	C67.915222,108.959381 69.513695,111.340668 71.112160,113.721954 
z"/>
<path fill="#6E52F9" opacity="1.000000" stroke="none" 
	d="
M161.980652,77.634293 
	C159.221008,77.055115 156.552460,76.061935 153.436310,74.781601 
	C152.923172,74.325279 152.857651,74.156136 152.813202,73.656662 
	C152.006927,71.837791 151.179550,70.349243 150.175598,68.553658 
	C147.999481,67.161560 145.999939,66.076508 143.691666,64.801437 
	C140.609833,65.082001 137.836716,65.552574 135.063614,66.023163 
	C132.886856,64.348915 130.710098,62.674671 128.163635,60.960178 
	C132.789337,55.486607 139.175293,54.468868 146.550354,55.152020 
	C149.431763,56.415874 151.860886,57.683357 154.620636,59.053696 
	C156.356445,60.855431 157.761597,62.554306 159.409180,64.492088 
	C160.034088,65.651108 160.416550,66.571220 160.979797,67.738266 
	C161.457657,69.416786 161.754715,70.848381 162.151917,72.634659 
	C162.191956,74.399666 162.131851,75.809982 161.980652,77.634293 
z"/>
<path fill="#8269FB" opacity="1.000000" stroke="none" 
	d="
M139.972961,97.914986 
	C141.880341,99.786423 143.787720,101.657867 145.874359,103.817413 
	C145.272293,105.450150 144.490967,106.794785 143.574707,108.453224 
	C142.588882,109.937904 141.737976,111.108780 140.783142,112.576706 
	C140.044693,113.652435 139.410187,114.431122 138.688080,115.505295 
	C138.600510,115.800789 138.275391,115.844795 138.113495,115.871353 
	C135.837418,114.306961 133.723251,112.716011 131.367126,110.761459 
	C131.866745,109.204826 132.608337,108.011810 133.617523,106.586731 
	C134.944107,104.579720 136.003113,102.804771 137.348053,100.906425 
	C138.413666,99.827011 139.193314,98.871002 139.972961,97.914986 
z"/>
<path fill="#52C7A9" opacity="1.000000" stroke="none" 
	d="
M64.446518,104.156532 
	C62.159374,105.580711 59.872234,107.004883 57.312805,108.678772 
	C56.237881,107.960678 55.435246,106.992859 54.369637,105.843811 
	C53.663158,105.123863 53.219650,104.585159 52.511757,103.974487 
	C52.141365,103.265160 52.035362,102.627800 51.847027,101.677567 
	C54.664936,99.609299 57.565182,97.853897 60.757545,96.463257 
	C62.181950,99.270859 63.314236,101.713692 64.446518,104.156532 
z"/>
<path fill="#171524" opacity="1.000000" stroke="none" 
	d="
M133.349930,106.818787 
	C132.608337,108.011810 131.866745,109.204826 131.023987,110.686157 
	C125.852753,112.738098 124.796944,111.968132 123.679070,105.392876 
	C124.739609,96.746658 125.918381,88.485634 127.171936,79.848328 
	C129.743713,75.186852 132.240723,70.901642 134.900665,66.319794 
	C137.836716,65.552574 140.609833,65.082001 143.607178,65.137329 
	C134.399628,77.869476 131.683746,91.786118 133.349930,106.818787 
z"/>
<path fill="#69D8B4" opacity="1.000000" stroke="none" 
	d="
M90.492355,109.237579 
	C93.840088,106.903038 97.187820,104.568489 100.854660,102.077408 
	C105.163109,107.542511 109.152458,113.164139 113.016357,119.431618 
	C110.807617,121.752518 108.724342,123.427574 106.396194,124.901138 
	C101.444458,120.133308 96.737602,115.566963 91.888733,110.739754 
	C91.328598,110.065125 90.910469,109.651352 90.492355,109.237579 
z"/>
<path fill="#73E0B9" opacity="1.000000" stroke="none" 
	d="
M106.641068,125.102615 
	C108.724342,123.427574 110.807617,121.752518 113.101936,119.752731 
	C115.244469,122.681206 117.175964,125.934425 119.137390,129.556122 
	C116.685387,130.929535 114.203438,131.934464 111.183990,132.672180 
	C109.311356,129.970871 107.976212,127.536743 106.641068,125.102615 
z"/>
<path fill="#112B27" opacity="1.000000" stroke="none" 
	d="
M47.996220,70.999603 
	C50.381054,66.172447 54.303532,63.828449 58.991623,64.428940 
	C64.278671,65.106155 67.450439,68.597069 68.917465,75.627708 
	C66.537666,83.627213 63.857414,85.874344 56.369640,85.737396 
	C54.379608,79.894600 53.756310,74.017647 47.996220,70.999603 
z"/>
<path fill="#113E36" opacity="1.000000" stroke="none" 
	d="
M47.745522,71.313904 
	C53.756310,74.017647 54.379608,79.894600 55.963467,85.641708 
	C55.836643,86.084251 55.676716,86.140465 55.266354,86.240990 
	C47.834202,83.184494 45.992245,79.594894 47.745522,71.313904 
z"/>
<path fill="#112B27" opacity="1.000000" stroke="none" 
	d="
M64.630890,104.343399 
	C63.314236,101.713692 62.181950,99.270859 61.140675,96.452484 
	C61.684322,95.933014 62.136963,95.789070 62.787636,95.511009 
	C64.543434,95.948639 66.101196,96.520386 67.763504,97.654572 
	C67.247490,100.803841 66.626923,103.390686 66.006355,105.977524 
	C65.609322,105.495102 65.212296,105.012680 64.630890,104.343399 
z"/>
<path fill="#111517" opacity="1.000000" stroke="none" 
	d="
M66.161560,106.277809 
	C66.626923,103.390686 67.247490,100.803841 68.016197,97.836784 
	C69.210701,97.921028 70.257057,98.385490 71.655762,98.810013 
	C74.755516,100.178673 77.502937,101.587280 80.602249,103.066467 
	C83.923401,105.110657 86.892654,107.084274 90.177124,109.147736 
	C90.910469,109.651352 91.328598,110.065125 91.699219,111.020676 
	C89.075516,115.366859 86.499306,119.171265 83.635880,123.158813 
	C82.724075,124.555962 82.099480,125.769951 81.474884,126.983940 
	C81.043182,126.763176 80.611481,126.542404 79.985092,126.169647 
	C77.085518,122.060608 74.380646,118.103577 71.393967,113.934250 
	C69.513695,111.340668 67.915222,108.959381 66.161560,106.277809 
z"/>
<path fill="#917EFD" opacity="1.000000" stroke="none" 
	d="
M83.923096,122.975662 
	C86.499306,119.171265 89.075516,115.366859 91.841232,111.281540 
	C96.737602,115.566963 101.444458,120.133308 106.396194,124.901131 
	C107.976212,127.536743 109.311356,129.970871 110.819328,132.703079 
	C110.750404,134.771545 110.508652,136.541931 109.752777,138.575668 
	C106.729424,137.312424 104.200111,135.817719 101.714981,134.252838 
	C95.773277,130.511368 89.852386,126.736839 83.923096,122.975662 
z"/>
<path fill="#9683FE" opacity="1.000000" stroke="none" 
	d="
M83.635880,123.158813 
	C89.852386,126.736839 95.773277,130.511368 101.714981,134.252838 
	C104.200111,135.817719 106.729424,137.312424 109.577881,138.915466 
	C107.368271,144.774292 104.659195,146.237900 96.640488,145.917374 
	C93.681847,143.395645 91.139572,140.896332 88.348015,138.181793 
	C85.933052,134.550491 83.767372,131.134430 81.538292,127.351151 
	C82.099480,125.769951 82.724075,124.555962 83.635880,123.158813 
z"/>
<path fill="#1D1933" opacity="1.000000" stroke="none" 
	d="
M140.031433,97.633041 
	C139.193314,98.871002 138.413666,99.827011 137.134506,100.571014 
	C135.517883,87.381844 140.194351,76.927727 150.352173,68.860703 
	C151.179550,70.349243 152.006927,71.837791 152.495819,73.751167 
	C145.265350,79.550179 141.022278,86.304398 141.136978,95.328949 
	C140.787964,96.002998 140.438950,96.677048 140.031433,97.633041 
z"/>
<path fill="#221C40" opacity="1.000000" stroke="none" 
	d="
M141.422577,95.131264 
	C141.022278,86.304398 145.265350,79.550179 152.474731,74.081497 
	C152.857651,74.156136 152.923172,74.325279 153.077347,74.751740 
	C149.346725,81.650558 145.527451,88.292068 141.422577,95.131264 
z"/>
<path fill="#191628" opacity="1.000000" stroke="none" 
	d="
M150.175598,68.553650 
	C140.194351,76.927727 135.517883,87.381844 136.848572,100.694412 
	C136.003113,102.804771 134.944107,104.579720 133.617523,106.586731 
	C131.683746,91.786118 134.399628,77.869476 143.915924,65.327347 
	C145.999939,66.076508 147.999481,67.161560 150.175598,68.553650 
z"/>
</svg>