<svg width="352" height="87" viewBox="0 0 352 87" fill="none" xmlns="http://www.w3.org/2000/svg">
<path fill-rule="evenodd" clip-rule="evenodd" d="M7.58947 3.52985C4.46244 2.4875 1.48748 5.46245 2.52983 8.58948L24.9044 75.7131C26.1234 79.3701 31.301 79.3563 32.5005 75.6929L42.2773 45.834C42.6738 44.6233 43.6233 43.6738 44.834 43.2773L74.6929 33.5005C78.3563 32.301 78.3701 27.1234 74.7131 25.9044L7.58947 3.52985Z" fill="#63e0c2"/>
<path d="M127.8 80.5C123 80.5 118.833 79.7333 115.3 78.2C111.767 76.6 108.8 74.4667 106.4 71.8C104.067 69.1333 102.3 66.1 101.1 62.7C99.9667 59.3 99.4 55.7667 99.4 52.1V50.1C99.4 46.2333 100 42.5667 101.2 39.1C102.467 35.6333 104.3 32.5667 106.7 29.9C109.1 27.2333 112.067 25.1333 115.6 23.6C119.133 22.0667 123.2 21.3 127.8 21.3C132.867 21.3 137.333 22.3 141.2 24.3C145.067 26.3 148.133 29.0667 150.4 32.6C152.733 36.0667 154.033 40.0667 154.3 44.6H136.5C136.3 42.4 135.467 40.5333 134 39C132.6 37.4667 130.533 36.7 127.8 36.7C125.467 36.7 123.533 37.3 122 38.5C120.533 39.7 119.433 41.3667 118.7 43.5C117.967 45.6333 117.6 48.1667 117.6 51.1C117.6 53.8333 117.9 56.2667 118.5 58.4C119.167 60.5333 120.233 62.2 121.7 63.4C123.233 64.5333 125.267 65.1 127.8 65.1C129.667 65.1 131.233 64.7667 132.5 64.1C133.767 63.4333 134.767 62.5 135.5 61.3C136.233 60.0333 136.7 58.5667 136.9 56.9H154.7C154.433 61.5667 153.1 65.6667 150.7 69.2C148.367 72.7333 145.233 75.5 141.3 77.5C137.367 79.5 132.867 80.5 127.8 80.5ZM164.728 78.5V5.5H182.928V78.5H164.728ZM158.528 18.7V5.5H182.928V18.7H158.528ZM198.95 78.5V23.3H217.15V78.5H198.95ZM191.95 36.5V23.3H217.15V36.5H191.95ZM206.45 18.9C203.117 18.9 200.65 18.0667 199.05 16.4C197.517 14.6667 196.75 12.4667 196.75 9.8C196.75 7.13333 197.517 4.96666 199.05 3.3C200.65 1.56666 203.083 0.699994 206.35 0.699994C209.683 0.699994 212.117 1.56666 213.65 3.3C215.183 4.96666 215.95 7.13333 215.95 9.8C215.95 12.4667 215.183 14.6667 213.65 16.4C212.117 18.0667 209.717 18.9 206.45 18.9ZM255.73 80.5C250.93 80.5 246.763 79.7333 243.23 78.2C239.696 76.6 236.73 74.4667 234.33 71.8C231.996 69.1333 230.23 66.1 229.03 62.7C227.896 59.3 227.33 55.7667 227.33 52.1V50.1C227.33 46.2333 227.93 42.5667 229.13 39.1C230.396 35.6333 232.23 32.5667 234.63 29.9C237.03 27.2333 239.996 25.1333 243.53 23.6C247.063 22.0667 251.13 21.3 255.73 21.3C260.796 21.3 265.263 22.3 269.13 24.3C272.996 26.3 276.063 29.0667 278.33 32.6C280.663 36.0667 281.963 40.0667 282.23 44.6H264.43C264.23 42.4 263.396 40.5333 261.93 39C260.53 37.4667 258.463 36.7 255.73 36.7C253.396 36.7 251.463 37.3 249.93 38.5C248.463 39.7 247.363 41.3667 246.63 43.5C245.896 45.6333 245.53 48.1667 245.53 51.1C245.53 53.8333 245.83 56.2667 246.43 58.4C247.096 60.5333 248.163 62.2 249.63 63.4C251.163 64.5333 253.196 65.1 255.73 65.1C257.596 65.1 259.163 64.7667 260.43 64.1C261.696 63.4333 262.696 62.5 263.43 61.3C264.163 60.0333 264.63 58.5667 264.83 56.9H282.63C282.363 61.5667 281.03 65.6667 278.63 69.2C276.296 72.7333 273.163 75.5 269.23 77.5C265.296 79.5 260.796 80.5 255.73 80.5ZM331.058 78.5L314.758 52.7H307.358L328.958 23.3H347.958L327.458 51V42.2L351.358 78.5H331.058ZM291.858 78.5V5.5H310.058V78.5H291.858Z" fill="white"/>
</svg>
